,trackId,ticks,on,idx,pitch,velocity
0,1,384, Note_on_c,1,64,127
1,1,384, Note_on_c,1,59,127
2,1,384, Note_on_c,1,55,127
3,1,605, Note_off_c,1,64,127
4,1,605, Note_off_c,1,59,127
5,1,605, Note_off_c,1,55,127
6,1,605, Note_on_c,1,64,127
7,1,605, Note_on_c,1,59,127
8,1,605, Note_on_c,1,55,127
9,1,768, Note_off_c,1,64,127
10,1,768, Note_off_c,1,59,127
11,1,768, Note_off_c,1,55,127
12,1,768, Note_on_c,1,64,127
13,1,768, Note_on_c,1,59,127
14,1,768, Note_on_c,1,55,127
15,1,964, Note_off_c,1,64,127
16,1,964, Note_off_c,1,59,127
17,1,964, Note_off_c,1,55,127
18,1,964, Note_on_c,1,64,127
19,1,964, Note_on_c,1,59,127
20,1,964, Note_on_c,1,55,127
21,1,1152, Note_off_c,1,64,127
22,1,1152, Note_off_c,1,59,127
23,1,1152, Note_off_c,1,55,127
24,1,1152, Note_on_c,1,64,127
25,1,1152, Note_on_c,1,59,127
26,1,1152, Note_on_c,1,55,127
27,1,1336, Note_off_c,1,64,127
28,1,1336, Note_off_c,1,59,127
29,1,1336, Note_off_c,1,55,127
30,1,1336, Note_on_c,1,64,127
31,1,1336, Note_on_c,1,59,127
32,1,1336, Note_on_c,1,55,127
33,1,1536, Note_off_c,1,64,127
34,1,1536, Note_off_c,1,59,127
35,1,1536, Note_off_c,1,55,127
36,1,1536, Note_on_c,1,64,127
37,1,1536, Note_on_c,1,59,127
38,1,1536, Note_on_c,1,55,127
39,1,1724, Note_off_c,1,64,127
40,1,1724, Note_off_c,1,59,127
41,1,1724, Note_off_c,1,55,127
42,1,1724, Note_on_c,1,64,127
43,1,1724, Note_on_c,1,59,127
44,1,1724, Note_on_c,1,55,127
45,1,1920, Note_off_c,1,64,127
46,1,1920, Note_off_c,1,59,127
47,1,1920, Note_off_c,1,55,127
48,1,1920, Note_on_c,1,64,127
49,1,1920, Note_on_c,1,57,127
50,1,1920, Note_on_c,1,54,127
51,1,2132, Note_off_c,1,64,127
52,1,2132, Note_off_c,1,57,127
53,1,2132, Note_off_c,1,54,127
54,1,2132, Note_on_c,1,64,127
55,1,2132, Note_on_c,1,57,127
56,1,2132, Note_on_c,1,54,127
57,1,2304, Note_off_c,1,64,127
58,1,2304, Note_off_c,1,57,127
59,1,2304, Note_off_c,1,54,127
60,1,2304, Note_on_c,1,64,127
61,1,2304, Note_on_c,1,57,127
62,1,2304, Note_on_c,1,54,127
63,1,2484, Note_off_c,1,64,127
64,1,2484, Note_off_c,1,57,127
65,1,2484, Note_off_c,1,54,127
66,1,2484, Note_on_c,1,64,127
67,1,2484, Note_on_c,1,57,127
68,1,2484, Note_on_c,1,54,127
69,1,2688, Note_off_c,1,64,127
70,1,2688, Note_off_c,1,57,127
71,1,2688, Note_off_c,1,54,127
72,1,2688, Note_on_c,1,63,127
73,1,2688, Note_on_c,1,57,127
74,1,2688, Note_on_c,1,54,127
75,1,2902, Note_off_c,1,63,127
76,1,2902, Note_off_c,1,57,127
77,1,2902, Note_off_c,1,54,127
78,1,2902, Note_on_c,1,63,127
79,1,2902, Note_on_c,1,57,127
80,1,2902, Note_on_c,1,54,127
81,1,3072, Note_off_c,1,63,127
82,1,3072, Note_off_c,1,57,127
83,1,3072, Note_off_c,1,54,127
84,1,3072, Note_on_c,1,63,127
85,1,3072, Note_on_c,1,57,127
86,1,3072, Note_on_c,1,54,127
87,1,3238, Note_off_c,1,63,127
88,1,3238, Note_off_c,1,57,127
89,1,3238, Note_off_c,1,54,127
90,1,3238, Note_on_c,1,63,127
91,1,3238, Note_on_c,1,57,127
92,1,3238, Note_on_c,1,54,127
93,1,3456, Note_off_c,1,63,127
94,1,3456, Note_off_c,1,57,127
95,1,3456, Note_off_c,1,54,127
96,1,3456, Note_on_c,1,63,127
97,1,3456, Note_on_c,1,57,127
98,1,3456, Note_on_c,1,53,127
99,1,3678, Note_off_c,1,63,127
100,1,3678, Note_off_c,1,57,127
101,1,3678, Note_off_c,1,53,127
102,1,3678, Note_on_c,1,63,127
103,1,3678, Note_on_c,1,57,127
104,1,3678, Note_on_c,1,53,127
105,1,3840, Note_off_c,1,63,127
106,1,3840, Note_off_c,1,57,127
107,1,3840, Note_off_c,1,53,127
108,1,3840, Note_on_c,1,63,127
109,1,3840, Note_on_c,1,57,127
110,1,3840, Note_on_c,1,53,127
111,1,4036, Note_off_c,1,63,127
112,1,4036, Note_off_c,1,57,127
113,1,4036, Note_off_c,1,53,127
114,1,4036, Note_on_c,1,63,127
115,1,4036, Note_on_c,1,57,127
116,1,4036, Note_on_c,1,53,127
117,1,4224, Note_off_c,1,63,127
118,1,4224, Note_off_c,1,57,127
119,1,4224, Note_off_c,1,53,127
120,1,4224, Note_on_c,1,62,127
121,1,4224, Note_on_c,1,57,127
122,1,4224, Note_on_c,1,53,127
123,1,4410, Note_off_c,1,62,127
124,1,4410, Note_off_c,1,57,127
125,1,4410, Note_off_c,1,53,127
126,1,4410, Note_on_c,1,62,127
127,1,4410, Note_on_c,1,57,127
128,1,4410, Note_on_c,1,53,127
129,1,4608, Note_off_c,1,62,127
130,1,4608, Note_off_c,1,57,127
131,1,4608, Note_off_c,1,53,127
132,1,4608, Note_on_c,1,62,127
133,1,4608, Note_on_c,1,56,127
134,1,4608, Note_on_c,1,53,127
135,1,4788, Note_off_c,1,62,127
136,1,4788, Note_off_c,1,56,127
137,1,4788, Note_off_c,1,53,127
138,1,4788, Note_on_c,1,62,127
139,1,4788, Note_on_c,1,56,127
140,1,4788, Note_on_c,1,53,127
141,1,4992, Note_off_c,1,62,127
142,1,4992, Note_off_c,1,56,127
143,1,4992, Note_off_c,1,53,127
144,1,4992, Note_on_c,1,62,127
145,1,4992, Note_on_c,1,56,127
146,1,4992, Note_on_c,1,52,127
147,1,5225, Note_off_c,1,62,127
148,1,5225, Note_off_c,1,56,127
149,1,5225, Note_off_c,1,52,127
150,1,5225, Note_on_c,1,62,127
151,1,5225, Note_on_c,1,56,127
152,1,5225, Note_on_c,1,52,127
153,1,5376, Note_off_c,1,62,127
154,1,5376, Note_off_c,1,56,127
155,1,5376, Note_off_c,1,52,127
156,1,5376, Note_on_c,1,62,127
157,1,5376, Note_on_c,1,56,127
158,1,5376, Note_on_c,1,52,127
159,1,5572, Note_off_c,1,62,127
160,1,5572, Note_off_c,1,56,127
161,1,5572, Note_off_c,1,52,127
162,1,5572, Note_on_c,1,62,127
163,1,5572, Note_on_c,1,56,127
164,1,5572, Note_on_c,1,52,127
165,1,5760, Note_off_c,1,62,127
166,1,5760, Note_off_c,1,56,127
167,1,5760, Note_off_c,1,52,127
168,1,5760, Note_on_c,1,62,127
169,1,5760, Note_on_c,1,55,127
170,1,5760, Note_on_c,1,52,127
171,1,5960, Note_off_c,1,62,127
172,1,5960, Note_off_c,1,55,127
173,1,5960, Note_off_c,1,52,127
174,1,5960, Note_on_c,1,62,127
175,1,5960, Note_on_c,1,55,127
176,1,5960, Note_on_c,1,52,127
177,1,6144, Note_off_c,1,62,127
178,1,6144, Note_off_c,1,55,127
179,1,6144, Note_off_c,1,52,127
180,1,6144, Note_on_c,1,61,127
181,1,6144, Note_on_c,1,55,127
182,1,6144, Note_on_c,1,52,127
183,1,6343, Note_off_c,1,61,127
184,1,6343, Note_off_c,1,55,127
185,1,6343, Note_off_c,1,52,127
186,1,6343, Note_on_c,1,61,127
187,1,6343, Note_on_c,1,55,127
188,1,6343, Note_on_c,1,52,127
189,1,6528, Note_off_c,1,61,127
190,1,6528, Note_off_c,1,55,127
191,1,6528, Note_off_c,1,52,127
192,1,6528, Note_on_c,1,60,127
193,1,6528, Note_on_c,1,55,127
194,1,6528, Note_on_c,1,52,127
195,1,6748, Note_off_c,1,60,127
196,1,6748, Note_off_c,1,55,127
197,1,6748, Note_off_c,1,52,127
198,1,6748, Note_on_c,1,60,127
199,1,6748, Note_on_c,1,55,127
200,1,6748, Note_on_c,1,52,127
201,1,6912, Note_off_c,1,60,127
202,1,6912, Note_off_c,1,55,127
203,1,6912, Note_off_c,1,52,127
204,1,6912, Note_on_c,1,60,127
205,1,6912, Note_on_c,1,55,127
206,1,6912, Note_on_c,1,52,127
207,1,7111, Note_off_c,1,60,127
208,1,7111, Note_off_c,1,55,127
209,1,7111, Note_off_c,1,52,127
210,1,7111, Note_on_c,1,60,127
211,1,7111, Note_on_c,1,55,127
212,1,7111, Note_on_c,1,52,127
213,1,7296, Note_off_c,1,60,127
214,1,7296, Note_off_c,1,55,127
215,1,7296, Note_off_c,1,52,127
216,1,7296, Note_on_c,1,60,127
217,1,7296, Note_on_c,1,54,127
218,1,7296, Note_on_c,1,52,127
219,1,7492, Note_off_c,1,60,127
220,1,7492, Note_off_c,1,54,127
221,1,7492, Note_off_c,1,52,127
222,1,7492, Note_on_c,1,60,127
223,1,7492, Note_on_c,1,54,127
224,1,7492, Note_on_c,1,52,127
225,1,7680, Note_off_c,1,60,127
226,1,7680, Note_off_c,1,54,127
227,1,7680, Note_off_c,1,52,127
228,1,7680, Note_on_c,1,60,127
229,1,7680, Note_on_c,1,54,127
230,1,7680, Note_on_c,1,52,127
231,1,7881, Note_off_c,1,60,127
232,1,7881, Note_off_c,1,54,127
233,1,7881, Note_off_c,1,52,127
234,1,7881, Note_on_c,1,60,127
235,1,7881, Note_on_c,1,54,127
236,1,7881, Note_on_c,1,52,127
237,1,8064, Note_off_c,1,60,127
238,1,8064, Note_off_c,1,54,127
239,1,8064, Note_off_c,1,52,127
240,1,8064, Note_on_c,1,60,127
241,1,8064, Note_on_c,1,54,127
242,1,8064, Note_on_c,1,52,127
243,1,8290, Note_off_c,1,60,127
244,1,8290, Note_off_c,1,54,127
245,1,8290, Note_off_c,1,52,127
246,1,8290, Note_on_c,1,60,127
247,1,8290, Note_on_c,1,54,127
248,1,8290, Note_on_c,1,52,127
249,1,8448, Note_off_c,1,60,127
250,1,8448, Note_off_c,1,54,127
251,1,8448, Note_off_c,1,52,127
252,1,8448, Note_on_c,1,60,127
253,1,8448, Note_on_c,1,54,127
254,1,8448, Note_on_c,1,52,127
255,1,8622, Note_off_c,1,60,127
256,1,8622, Note_off_c,1,54,127
257,1,8622, Note_off_c,1,52,127
258,1,8622, Note_on_c,1,60,127
259,1,8622, Note_on_c,1,54,127
260,1,8622, Note_on_c,1,52,127
261,1,8832, Note_off_c,1,60,127
262,1,8832, Note_off_c,1,54,127
263,1,8832, Note_off_c,1,52,127
264,1,8832, Note_on_c,1,60,127
265,1,8832, Note_on_c,1,54,127
266,1,8832, Note_on_c,1,51,127
267,1,9033, Note_off_c,1,60,127
268,1,9033, Note_off_c,1,54,127
269,1,9033, Note_off_c,1,51,127
270,1,9033, Note_on_c,1,60,127
271,1,9033, Note_on_c,1,54,127
272,1,9033, Note_on_c,1,51,127
273,1,9216, Note_off_c,1,60,127
274,1,9216, Note_off_c,1,54,127
275,1,9216, Note_off_c,1,51,127
276,1,9216, Note_on_c,1,60,127
277,1,9216, Note_on_c,1,54,127
278,1,9216, Note_on_c,1,51,127
279,1,9397, Note_off_c,1,60,127
280,1,9397, Note_off_c,1,54,127
281,1,9397, Note_off_c,1,51,127
282,1,9397, Note_on_c,1,60,127
283,1,9397, Note_on_c,1,54,127
284,1,9397, Note_on_c,1,51,127
285,1,9600, Note_off_c,1,60,127
286,1,9600, Note_off_c,1,54,127
287,1,9600, Note_off_c,1,51,127
288,1,9600, Note_on_c,1,60,127
289,1,9600, Note_on_c,1,54,127
290,1,9600, Note_on_c,1,50,127
291,1,9827, Note_off_c,1,60,127
292,1,9827, Note_off_c,1,54,127
293,1,9827, Note_off_c,1,50,127
294,1,9827, Note_on_c,1,60,127
295,1,9827, Note_on_c,1,54,127
296,1,9827, Note_on_c,1,50,127
297,1,9984, Note_off_c,1,60,127
298,1,9984, Note_off_c,1,54,127
299,1,9984, Note_off_c,1,50,127
300,1,9984, Note_on_c,1,60,127
301,1,9984, Note_on_c,1,54,127
302,1,9984, Note_on_c,1,50,127
303,1,10164, Note_off_c,1,60,127
304,1,10164, Note_off_c,1,54,127
305,1,10164, Note_off_c,1,50,127
306,1,10164, Note_on_c,1,60,127
307,1,10164, Note_on_c,1,54,127
308,1,10164, Note_on_c,1,50,127
309,1,10368, Note_off_c,1,60,127
310,1,10368, Note_off_c,1,54,127
311,1,10368, Note_off_c,1,50,127
312,1,10368, Note_on_c,1,60,127
313,1,10368, Note_on_c,1,54,127
314,1,10368, Note_on_c,1,50,127
315,1,10554, Note_off_c,1,60,127
316,1,10554, Note_off_c,1,54,127
317,1,10554, Note_off_c,1,50,127
318,1,10554, Note_on_c,1,60,127
319,1,10554, Note_on_c,1,54,127
320,1,10554, Note_on_c,1,50,127
321,1,10752, Note_off_c,1,60,127
322,1,10752, Note_off_c,1,54,127
323,1,10752, Note_off_c,1,50,127
324,1,10752, Note_on_c,1,60,127
325,1,10752, Note_on_c,1,54,127
326,1,10752, Note_on_c,1,50,127
327,1,10935, Note_off_c,1,60,127
328,1,10935, Note_off_c,1,54,127
329,1,10935, Note_off_c,1,50,127
330,1,10935, Note_on_c,1,60,127
331,1,10935, Note_on_c,1,54,127
332,1,10935, Note_on_c,1,50,127
333,1,11136, Note_off_c,1,60,127
334,1,11136, Note_off_c,1,54,127
335,1,11136, Note_off_c,1,50,127
336,1,11136, Note_on_c,1,60,127
337,1,11136, Note_on_c,1,53,127
338,1,11136, Note_on_c,1,50,127
339,1,11354, Note_off_c,1,60,127
340,1,11354, Note_off_c,1,53,127
341,1,11354, Note_off_c,1,50,127
342,1,11354, Note_on_c,1,60,127
343,1,11354, Note_on_c,1,53,127
344,1,11354, Note_on_c,1,50,127
345,1,11520, Note_off_c,1,60,127
346,1,11520, Note_off_c,1,53,127
347,1,11520, Note_off_c,1,50,127
348,1,11520, Note_on_c,1,60,127
349,1,11520, Note_on_c,1,53,127
350,1,11520, Note_on_c,1,50,127
351,1,11712, Note_off_c,1,60,127
352,1,11712, Note_off_c,1,53,127
353,1,11712, Note_off_c,1,50,127
354,1,11712, Note_on_c,1,60,127
355,1,11712, Note_on_c,1,53,127
356,1,11712, Note_on_c,1,50,127
357,1,11904, Note_off_c,1,60,127
358,1,11904, Note_off_c,1,53,127
359,1,11904, Note_off_c,1,50,127
360,1,11904, Note_on_c,1,59,127
361,1,11904, Note_on_c,1,53,127
362,1,11904, Note_on_c,1,50,127
363,1,12107, Note_off_c,1,59,127
364,1,12107, Note_off_c,1,53,127
365,1,12107, Note_off_c,1,50,127
366,1,12107, Note_on_c,1,59,127
367,1,12107, Note_on_c,1,53,127
368,1,12107, Note_on_c,1,50,127
369,1,12288, Note_off_c,1,59,127
370,1,12288, Note_off_c,1,53,127
371,1,12288, Note_off_c,1,50,127
372,1,12288, Note_on_c,1,59,127
373,1,12288, Note_on_c,1,53,127
374,1,12288, Note_on_c,1,50,127
375,1,12460, Note_off_c,1,59,127
376,1,12460, Note_off_c,1,53,127
377,1,12460, Note_off_c,1,50,127
378,1,12460, Note_on_c,1,59,127
379,1,12460, Note_on_c,1,53,127
380,1,12460, Note_on_c,1,50,127
381,1,12672, Note_off_c,1,59,127
382,1,12672, Note_off_c,1,53,127
383,1,12672, Note_off_c,1,50,127
384,1,12672, Note_on_c,1,59,127
385,1,12672, Note_on_c,1,52,127
386,1,12672, Note_on_c,1,48,127
387,1,12855, Note_off_c,1,59,127
388,1,12855, Note_off_c,1,52,127
389,1,12855, Note_off_c,1,48,127
390,1,12855, Note_on_c,1,59,127
391,1,12855, Note_on_c,1,52,127
392,1,12855, Note_on_c,1,48,127
393,1,13056, Note_off_c,1,59,127
394,1,13056, Note_off_c,1,52,127
395,1,13056, Note_off_c,1,48,127
396,1,13056, Note_on_c,1,57,127
397,1,13056, Note_on_c,1,52,127
398,1,13056, Note_on_c,1,48,127
399,1,13263, Note_off_c,1,57,127
400,1,13263, Note_off_c,1,52,127
401,1,13263, Note_off_c,1,48,127
402,1,13263, Note_on_c,1,57,127
403,1,13263, Note_on_c,1,52,127
404,1,13263, Note_on_c,1,48,127
405,1,13440, Note_off_c,1,57,127
406,1,13440, Note_off_c,1,52,127
407,1,13440, Note_off_c,1,48,127
408,1,13440, Note_on_c,1,57,127
409,1,13440, Note_on_c,1,52,127
410,1,13440, Note_on_c,1,48,127
411,1,13628, Note_off_c,1,57,127
412,1,13628, Note_off_c,1,52,127
413,1,13628, Note_off_c,1,48,127
414,1,13628, Note_on_c,1,57,127
415,1,13628, Note_on_c,1,52,127
416,1,13628, Note_on_c,1,48,127
417,1,13824, Note_off_c,1,57,127
418,1,13824, Note_off_c,1,52,127
419,1,13824, Note_off_c,1,48,127
420,1,13824, Note_on_c,1,57,127
421,1,13824, Note_on_c,1,52,127
422,1,13824, Note_on_c,1,48,127
423,1,14003, Note_off_c,1,57,127
424,1,14003, Note_off_c,1,52,127
425,1,14003, Note_off_c,1,48,127
426,1,14003, Note_on_c,1,57,127
427,1,14003, Note_on_c,1,52,127
428,1,14003, Note_on_c,1,48,127
429,1,14208, Note_off_c,1,57,127
430,1,14208, Note_off_c,1,52,127
431,1,14208, Note_off_c,1,48,127
432,1,14208, Note_on_c,1,57,127
433,1,14208, Note_on_c,1,52,127
434,1,14208, Note_on_c,1,47,127
435,1,14427, Note_off_c,1,57,127
436,1,14427, Note_off_c,1,52,127
437,1,14427, Note_off_c,1,47,127
438,1,14427, Note_on_c,1,57,127
439,1,14427, Note_on_c,1,52,127
440,1,14427, Note_on_c,1,47,127
441,1,14592, Note_off_c,1,57,127
442,1,14592, Note_off_c,1,52,127
443,1,14592, Note_off_c,1,47,127
444,1,14592, Note_on_c,1,57,127
445,1,14592, Note_on_c,1,51,127
446,1,14592, Note_on_c,1,47,127
447,1,14782, Note_off_c,1,57,127
448,1,14782, Note_off_c,1,51,127
449,1,14782, Note_off_c,1,47,127
450,1,14782, Note_on_c,1,57,127
451,1,14782, Note_on_c,1,51,127
452,1,14782, Note_on_c,1,47,127
453,1,14976, Note_off_c,1,57,127
454,1,14976, Note_off_c,1,51,127
455,1,14976, Note_off_c,1,47,127
456,1,14976, Note_on_c,1,57,127
457,1,14976, Note_on_c,1,52,127
458,1,14976, Note_on_c,1,48,127
459,1,15174, Note_off_c,1,57,127
460,1,15174, Note_off_c,1,52,127
461,1,15174, Note_off_c,1,48,127
462,1,15174, Note_on_c,1,57,127
463,1,15174, Note_on_c,1,52,127
464,1,15174, Note_on_c,1,48,127
465,1,15360, Note_off_c,1,57,127
466,1,15360, Note_off_c,1,52,127
467,1,15360, Note_off_c,1,48,127
468,1,15360, Note_on_c,1,57,127
469,1,15360, Note_on_c,1,52,127
470,1,15360, Note_on_c,1,48,127
471,1,15537, Note_off_c,1,57,127
472,1,15537, Note_off_c,1,52,127
473,1,15537, Note_off_c,1,48,127
474,1,15537, Note_on_c,1,57,127
475,1,15537, Note_on_c,1,52,127
476,1,15537, Note_on_c,1,48,127
477,1,15744, Note_off_c,1,57,127
478,1,15744, Note_off_c,1,52,127
479,1,15744, Note_off_c,1,48,127
480,1,15744, Note_on_c,1,57,127
481,1,15744, Note_on_c,1,51,127
482,1,15744, Note_on_c,1,47,127
483,1,15956, Note_off_c,1,57,127
484,1,15956, Note_off_c,1,51,127
485,1,15956, Note_off_c,1,47,127
486,1,15956, Note_on_c,1,57,127
487,1,15956, Note_on_c,1,51,127
488,1,15956, Note_on_c,1,47,127
489,1,16128, Note_off_c,1,57,127
490,1,16128, Note_off_c,1,51,127
491,1,16128, Note_off_c,1,47,127
492,1,16128, Note_on_c,1,57,127
493,1,16128, Note_on_c,1,51,127
494,1,16128, Note_on_c,1,47,127
495,1,16317, Note_off_c,1,57,127
496,1,16317, Note_off_c,1,51,127
497,1,16317, Note_off_c,1,47,127
498,1,16317, Note_on_c,1,57,127
499,1,16317, Note_on_c,1,51,127
500,1,16317, Note_on_c,1,47,127
501,1,16512, Note_off_c,1,57,127
502,1,16512, Note_off_c,1,51,127
503,1,16512, Note_off_c,1,47,127
504,1,16512, Note_on_c,1,57,127
505,1,16512, Note_on_c,1,52,127
506,1,16512, Note_on_c,1,48,127
507,1,16653, Note_off_c,1,57,127
508,1,16653, Note_off_c,1,52,127
509,1,16653, Note_off_c,1,48,127
510,1,16653, Note_on_c,1,57,127
511,1,16653, Note_on_c,1,52,127
512,1,16653, Note_on_c,1,48,127
513,1,16896, Note_off_c,1,57,127
514,1,16896, Note_off_c,1,52,127
515,1,16896, Note_off_c,1,48,127
516,1,16896, Note_on_c,1,57,127
517,1,16896, Note_on_c,1,52,127
518,1,16896, Note_on_c,1,48,127
519,1,17121, Note_off_c,1,57,127
520,1,17121, Note_off_c,1,52,127
521,1,17121, Note_off_c,1,48,127
522,1,17121, Note_on_c,1,57,127
523,1,17121, Note_on_c,1,52,127
524,1,17121, Note_on_c,1,48,127
525,1,17280, Note_off_c,1,57,127
526,1,17280, Note_off_c,1,52,127
527,1,17280, Note_off_c,1,48,127
528,1,17280, Note_on_c,1,57,127
529,1,17280, Note_on_c,1,51,127
530,1,17280, Note_on_c,1,47,127
531,1,17664, Note_off_c,1,57,127
532,1,17664, Note_off_c,1,51,127
533,1,17664, Note_off_c,1,47,127
534,1,18816, Note_on_c,1,64,127
535,1,18816, Note_on_c,1,59,127
536,1,18816, Note_on_c,1,55,127
537,1,19037, Note_off_c,1,64,127
538,1,19037, Note_off_c,1,59,127
539,1,19037, Note_off_c,1,55,127
540,1,19037, Note_on_c,1,64,127
541,1,19037, Note_on_c,1,59,127
542,1,19037, Note_on_c,1,55,127
543,1,19200, Note_off_c,1,64,127
544,1,19200, Note_off_c,1,59,127
545,1,19200, Note_off_c,1,55,127
546,1,19200, Note_on_c,1,64,127
547,1,19200, Note_on_c,1,59,127
548,1,19200, Note_on_c,1,55,127
549,1,19400, Note_off_c,1,64,127
550,1,19400, Note_off_c,1,59,127
551,1,19400, Note_off_c,1,55,127
552,1,19400, Note_on_c,1,64,127
553,1,19400, Note_on_c,1,59,127
554,1,19400, Note_on_c,1,55,127
555,1,19584, Note_off_c,1,64,127
556,1,19584, Note_off_c,1,59,127
557,1,19584, Note_off_c,1,55,127
558,1,19584, Note_on_c,1,64,127
559,1,19584, Note_on_c,1,59,127
560,1,19584, Note_on_c,1,55,127
561,1,19780, Note_off_c,1,64,127
562,1,19780, Note_off_c,1,59,127
563,1,19780, Note_off_c,1,55,127
564,1,19780, Note_on_c,1,64,127
565,1,19780, Note_on_c,1,59,127
566,1,19780, Note_on_c,1,55,127
567,1,19968, Note_off_c,1,64,127
568,1,19968, Note_off_c,1,59,127
569,1,19968, Note_off_c,1,55,127
570,1,19968, Note_on_c,1,64,127
571,1,19968, Note_on_c,1,59,127
572,1,19968, Note_on_c,1,55,127
573,1,20146, Note_off_c,1,64,127
574,1,20146, Note_off_c,1,59,127
575,1,20146, Note_off_c,1,55,127
576,1,20146, Note_on_c,1,64,127
577,1,20146, Note_on_c,1,59,127
578,1,20146, Note_on_c,1,55,127
579,1,20352, Note_off_c,1,64,127
580,1,20352, Note_off_c,1,59,127
581,1,20352, Note_off_c,1,55,127
582,1,20352, Note_on_c,1,64,127
583,1,20352, Note_on_c,1,57,127
584,1,20352, Note_on_c,1,54,127
585,1,20577, Note_off_c,1,64,127
586,1,20577, Note_off_c,1,57,127
587,1,20577, Note_off_c,1,54,127
588,1,20577, Note_on_c,1,64,127
589,1,20577, Note_on_c,1,57,127
590,1,20577, Note_on_c,1,54,127
591,1,20736, Note_off_c,1,64,127
592,1,20736, Note_off_c,1,57,127
593,1,20736, Note_off_c,1,54,127
594,1,20736, Note_on_c,1,64,127
595,1,20736, Note_on_c,1,57,127
596,1,20736, Note_on_c,1,54,127
597,1,20915, Note_off_c,1,64,127
598,1,20915, Note_off_c,1,57,127
599,1,20915, Note_off_c,1,54,127
600,1,20915, Note_on_c,1,64,127
601,1,20915, Note_on_c,1,57,127
602,1,20915, Note_on_c,1,54,127
603,1,21120, Note_off_c,1,64,127
604,1,21120, Note_off_c,1,57,127
605,1,21120, Note_off_c,1,54,127
606,1,21120, Note_on_c,1,63,127
607,1,21120, Note_on_c,1,57,127
608,1,21120, Note_on_c,1,53,127
609,1,21328, Note_off_c,1,63,127
610,1,21328, Note_off_c,1,57,127
611,1,21328, Note_off_c,1,53,127
612,1,21328, Note_on_c,1,63,127
613,1,21328, Note_on_c,1,57,127
614,1,21328, Note_on_c,1,53,127
615,1,21504, Note_off_c,1,63,127
616,1,21504, Note_off_c,1,57,127
617,1,21504, Note_off_c,1,53,127
618,1,21504, Note_on_c,1,63,127
619,1,21504, Note_on_c,1,57,127
620,1,21504, Note_on_c,1,53,127
621,1,21678, Note_off_c,1,63,127
622,1,21678, Note_off_c,1,57,127
623,1,21678, Note_off_c,1,53,127
624,1,21678, Note_on_c,1,63,127
625,1,21678, Note_on_c,1,57,127
626,1,21678, Note_on_c,1,53,127
627,1,21888, Note_off_c,1,63,127
628,1,21888, Note_off_c,1,57,127
629,1,21888, Note_off_c,1,53,127
630,1,21888, Note_on_c,1,63,127
631,1,21888, Note_on_c,1,56,127
632,1,21888, Note_on_c,1,53,127
633,1,22097, Note_off_c,1,63,127
634,1,22097, Note_off_c,1,56,127
635,1,22097, Note_off_c,1,53,127
636,1,22097, Note_on_c,1,63,127
637,1,22097, Note_on_c,1,56,127
638,1,22097, Note_on_c,1,53,127
639,1,22272, Note_off_c,1,63,127
640,1,22272, Note_off_c,1,56,127
641,1,22272, Note_off_c,1,53,127
642,1,22272, Note_on_c,1,62,127
643,1,22272, Note_on_c,1,56,127
644,1,22272, Note_on_c,1,53,127
645,1,22456, Note_off_c,1,62,127
646,1,22456, Note_off_c,1,56,127
647,1,22456, Note_off_c,1,53,127
648,1,22456, Note_on_c,1,62,127
649,1,22456, Note_on_c,1,56,127
650,1,22456, Note_on_c,1,53,127
651,1,22656, Note_off_c,1,62,127
652,1,22656, Note_off_c,1,56,127
653,1,22656, Note_off_c,1,53,127
654,1,22656, Note_on_c,1,62,127
655,1,22656, Note_on_c,1,56,127
656,1,22656, Note_on_c,1,52,127
657,1,22864, Note_off_c,1,62,127
658,1,22864, Note_off_c,1,56,127
659,1,22864, Note_off_c,1,52,127
660,1,22864, Note_on_c,1,62,127
661,1,22864, Note_on_c,1,56,127
662,1,22864, Note_on_c,1,52,127
663,1,23040, Note_off_c,1,62,127
664,1,23040, Note_off_c,1,56,127
665,1,23040, Note_off_c,1,52,127
666,1,23040, Note_on_c,1,62,127
667,1,23040, Note_on_c,1,56,127
668,1,23040, Note_on_c,1,52,127
669,1,23225, Note_off_c,1,62,127
670,1,23225, Note_off_c,1,56,127
671,1,23225, Note_off_c,1,52,127
672,1,23225, Note_on_c,1,62,127
673,1,23225, Note_on_c,1,56,127
674,1,23225, Note_on_c,1,52,127
675,1,23424, Note_off_c,1,62,127
676,1,23424, Note_off_c,1,56,127
677,1,23424, Note_off_c,1,52,127
678,1,23424, Note_on_c,1,62,127
679,1,23424, Note_on_c,1,55,127
680,1,23424, Note_on_c,1,52,127
681,1,23627, Note_off_c,1,62,127
682,1,23627, Note_off_c,1,55,127
683,1,23627, Note_off_c,1,52,127
684,1,23627, Note_on_c,1,62,127
685,1,23627, Note_on_c,1,55,127
686,1,23627, Note_on_c,1,52,127
687,1,23808, Note_off_c,1,62,127
688,1,23808, Note_off_c,1,55,127
689,1,23808, Note_off_c,1,52,127
690,1,23808, Note_on_c,1,61,127
691,1,23808, Note_on_c,1,55,127
692,1,23808, Note_on_c,1,52,127
693,1,24032, Note_off_c,1,61,127
694,1,24032, Note_off_c,1,55,127
695,1,24032, Note_off_c,1,52,127
696,1,24032, Note_on_c,1,61,127
697,1,24032, Note_on_c,1,55,127
698,1,24032, Note_on_c,1,52,127
699,1,24192, Note_off_c,1,61,127
700,1,24192, Note_off_c,1,55,127
701,1,24192, Note_off_c,1,52,127
702,1,24192, Note_on_c,1,58,127
703,1,24192, Note_on_c,1,52,127
704,1,24192, Note_on_c,1,49,127
705,1,24450, Note_off_c,1,58,127
706,1,24450, Note_off_c,1,52,127
707,1,24450, Note_off_c,1,49,127
708,1,24450, Note_on_c,1,58,127
709,1,24450, Note_on_c,1,52,127
710,1,24450, Note_on_c,1,49,127
711,1,24576, Note_off_c,1,58,127
712,1,24576, Note_off_c,1,52,127
713,1,24576, Note_off_c,1,49,127
714,1,24576, Note_on_c,1,57,127
715,1,24576, Note_on_c,1,52,127
716,1,24576, Note_on_c,1,48,127
717,1,24759, Note_off_c,1,57,127
718,1,24759, Note_off_c,1,52,127
719,1,24759, Note_off_c,1,48,127
720,1,24759, Note_on_c,1,57,127
721,1,24759, Note_on_c,1,52,127
722,1,24759, Note_on_c,1,48,127
723,1,24960, Note_off_c,1,57,127
724,1,24960, Note_off_c,1,52,127
725,1,24960, Note_off_c,1,48,127
726,1,24960, Note_on_c,1,47,127
727,1,24960, Note_on_c,1,35,127
728,1,25145, Note_off_c,1,47,127
729,1,25145, Note_off_c,1,35,127
730,1,25145, Note_on_c,1,69,127
731,1,25145, Note_on_c,1,66,127
732,1,25145, Note_on_c,1,60,127
733,1,25145, Note_on_c,1,57,127
734,1,25344, Note_off_c,1,69,127
735,1,25344, Note_off_c,1,66,127
736,1,25344, Note_off_c,1,60,127
737,1,25344, Note_off_c,1,57,127
738,1,25344, Note_on_c,1,69,127
739,1,25344, Note_on_c,1,66,127
740,1,25344, Note_on_c,1,60,127
741,1,25344, Note_on_c,1,57,127
742,1,25535, Note_off_c,1,69,127
743,1,25535, Note_off_c,1,66,127
744,1,25535, Note_off_c,1,60,127
745,1,25535, Note_off_c,1,57,127
746,1,25535, Note_on_c,1,69,127
747,1,25535, Note_on_c,1,66,127
748,1,25535, Note_on_c,1,60,127
749,1,25535, Note_on_c,1,57,127
750,1,25728, Note_off_c,1,69,127
751,1,25728, Note_off_c,1,66,127
752,1,25728, Note_off_c,1,60,127
753,1,25728, Note_off_c,1,57,127
754,1,25728, Note_on_c,1,66,127
755,1,25728, Note_on_c,1,63,127
756,1,25728, Note_on_c,1,59,127
757,1,25728, Note_on_c,1,55,127
758,1,25916, Note_off_c,1,66,127
759,1,25916, Note_off_c,1,63,127
760,1,25916, Note_off_c,1,59,127
761,1,25916, Note_off_c,1,55,127
762,1,25916, Note_on_c,1,64,127
763,1,25916, Note_on_c,1,59,127
764,1,25916, Note_on_c,1,55,127
765,1,26112, Note_off_c,1,64,127
766,1,26112, Note_off_c,1,59,127
767,1,26112, Note_off_c,1,55,127
768,1,26112, Note_on_c,1,64,127
769,1,26112, Note_on_c,1,59,127
770,1,26112, Note_on_c,1,55,127
771,1,26285, Note_off_c,1,64,127
772,1,26285, Note_off_c,1,59,127
773,1,26285, Note_off_c,1,55,127
774,1,26285, Note_on_c,1,64,127
775,1,26285, Note_on_c,1,59,127
776,1,26285, Note_on_c,1,55,127
777,1,26496, Note_off_c,1,64,127
778,1,26496, Note_off_c,1,59,127
779,1,26496, Note_off_c,1,55,127
780,1,26496, Note_on_c,1,64,127
781,1,26496, Note_on_c,1,60,127
782,1,26496, Note_on_c,1,57,127
783,1,26690, Note_off_c,1,64,127
784,1,26690, Note_off_c,1,60,127
785,1,26690, Note_off_c,1,57,127
786,1,26690, Note_on_c,1,64,127
787,1,26690, Note_on_c,1,60,127
788,1,26690, Note_on_c,1,57,127
789,1,26880, Note_off_c,1,64,127
790,1,26880, Note_off_c,1,60,127
791,1,26880, Note_off_c,1,57,127
792,1,26880, Note_on_c,1,45,127
793,1,27081, Note_off_c,1,45,127
794,1,27081, Note_on_c,1,60,127
795,1,27081, Note_on_c,1,54,127
796,1,27081, Note_on_c,1,52,127
797,1,27264, Note_off_c,1,60,127
798,1,27264, Note_off_c,1,54,127
799,1,27264, Note_off_c,1,52,127
800,1,27264, Note_on_c,1,59,127
801,1,27264, Note_on_c,1,52,127
802,1,27264, Note_on_c,1,47,127
803,1,27490, Note_off_c,1,59,127
804,1,27490, Note_off_c,1,52,127
805,1,27490, Note_off_c,1,47,127
806,1,27490, Note_on_c,1,59,127
807,1,27490, Note_on_c,1,52,127
808,1,27490, Note_on_c,1,47,127
809,1,27648, Note_off_c,1,59,127
810,1,27648, Note_off_c,1,52,127
811,1,27648, Note_off_c,1,47,127
812,1,27648, Note_on_c,1,57,127
813,1,27648, Note_on_c,1,52,127
814,1,27648, Note_on_c,1,48,127
815,1,27824, Note_off_c,1,57,127
816,1,27824, Note_off_c,1,52,127
817,1,27824, Note_off_c,1,48,127
818,1,27824, Note_on_c,1,57,127
819,1,27824, Note_on_c,1,52,127
820,1,27824, Note_on_c,1,48,127
821,1,28032, Note_off_c,1,57,127
822,1,28032, Note_off_c,1,52,127
823,1,28032, Note_off_c,1,48,127
824,1,28032, Note_on_c,1,59,127
825,1,28032, Note_on_c,1,52,127
826,1,28032, Note_on_c,1,47,127
827,1,28259, Note_off_c,1,59,127
828,1,28259, Note_off_c,1,52,127
829,1,28259, Note_off_c,1,47,127
830,1,28259, Note_on_c,1,59,127
831,1,28259, Note_on_c,1,52,127
832,1,28259, Note_on_c,1,47,127
833,1,28416, Note_off_c,1,59,127
834,1,28416, Note_off_c,1,52,127
835,1,28416, Note_off_c,1,47,127
836,1,28416, Note_on_c,1,59,127
837,1,28416, Note_on_c,1,52,127
838,1,28416, Note_on_c,1,47,127
839,1,28612, Note_off_c,1,59,127
840,1,28612, Note_off_c,1,52,127
841,1,28612, Note_off_c,1,47,127
842,1,28612, Note_on_c,1,59,127
843,1,28612, Note_on_c,1,52,127
844,1,28612, Note_on_c,1,47,127
845,1,28800, Note_off_c,1,59,127
846,1,28800, Note_off_c,1,52,127
847,1,28800, Note_off_c,1,47,127
848,1,28800, Note_on_c,1,57,127
849,1,28800, Note_on_c,1,52,127
850,1,28800, Note_on_c,1,48,127
851,1,28949, Note_off_c,1,57,127
852,1,28949, Note_off_c,1,52,127
853,1,28949, Note_off_c,1,48,127
854,1,28949, Note_on_c,1,57,127
855,1,28949, Note_on_c,1,52,127
856,1,28949, Note_on_c,1,48,127
857,1,29184, Note_off_c,1,57,127
858,1,29184, Note_off_c,1,52,127
859,1,29184, Note_off_c,1,48,127
860,1,29184, Note_on_c,1,57,127
861,1,29184, Note_on_c,1,52,127
862,1,29184, Note_on_c,1,48,127
863,1,29364, Note_off_c,1,57,127
864,1,29364, Note_off_c,1,52,127
865,1,29364, Note_off_c,1,48,127
866,1,29364, Note_on_c,1,57,127
867,1,29364, Note_on_c,1,52,127
868,1,29364, Note_on_c,1,48,127
869,1,29568, Note_off_c,1,57,127
870,1,29568, Note_off_c,1,52,127
871,1,29568, Note_off_c,1,48,127
872,1,29568, Note_on_c,1,59,127
873,1,29568, Note_on_c,1,52,127
874,1,29568, Note_on_c,1,47,127
875,1,29773, Note_off_c,1,59,127
876,1,29773, Note_off_c,1,52,127
877,1,29773, Note_off_c,1,47,127
878,1,29773, Note_on_c,1,59,127
879,1,29773, Note_on_c,1,52,127
880,1,29773, Note_on_c,1,47,127
881,1,29952, Note_off_c,1,59,127
882,1,29952, Note_off_c,1,52,127
883,1,29952, Note_off_c,1,47,127
884,1,29952, Note_on_c,1,59,127
885,1,29952, Note_on_c,1,52,127
886,1,29952, Note_on_c,1,47,127
887,1,30148, Note_off_c,1,59,127
888,1,30148, Note_off_c,1,52,127
889,1,30148, Note_off_c,1,47,127
890,1,30148, Note_on_c,1,59,127
891,1,30148, Note_on_c,1,52,127
892,1,30148, Note_on_c,1,47,127
893,1,30336, Note_off_c,1,59,127
894,1,30336, Note_off_c,1,52,127
895,1,30336, Note_off_c,1,47,127
896,1,30336, Note_on_c,1,59,127
897,1,30336, Note_on_c,1,51,127
898,1,30336, Note_on_c,1,47,127
899,1,30532, Note_off_c,1,59,127
900,1,30532, Note_off_c,1,51,127
901,1,30532, Note_off_c,1,47,127
902,1,30532, Note_on_c,1,59,127
903,1,30532, Note_on_c,1,51,127
904,1,30532, Note_on_c,1,47,127
905,1,30720, Note_off_c,1,59,127
906,1,30720, Note_off_c,1,51,127
907,1,30720, Note_off_c,1,47,127
908,1,30720, Note_on_c,1,57,127
909,1,30720, Note_on_c,1,51,127
910,1,30720, Note_on_c,1,47,127
911,1,30891, Note_off_c,1,57,127
912,1,30891, Note_off_c,1,51,127
913,1,30891, Note_off_c,1,47,127
914,1,30891, Note_on_c,1,57,127
915,1,30891, Note_on_c,1,51,127
916,1,30891, Note_on_c,1,47,127
917,1,31104, Note_off_c,1,57,127
918,1,31104, Note_off_c,1,51,127
919,1,31104, Note_off_c,1,47,127
920,1,31104, Note_on_c,1,55,127
921,1,31104, Note_on_c,1,48,127
922,1,31326, Note_off_c,1,55,127
923,1,31326, Note_off_c,1,48,127
924,1,31326, Note_on_c,1,55,127
925,1,31326, Note_on_c,1,48,127
926,1,31488, Note_off_c,1,55,127
927,1,31488, Note_off_c,1,48,127
928,1,31488, Note_on_c,1,55,127
929,1,31488, Note_on_c,1,48,127
930,1,31661, Note_off_c,1,55,127
931,1,31661, Note_off_c,1,48,127
932,1,31661, Note_on_c,1,55,127
933,1,31661, Note_on_c,1,48,127
934,1,31872, Note_off_c,1,55,127
935,1,31872, Note_off_c,1,48,127
936,1,31872, Note_on_c,1,58,127
937,1,31872, Note_on_c,1,48,127
938,1,32046, Note_off_c,1,58,127
939,1,32046, Note_off_c,1,48,127
940,1,32046, Note_on_c,1,58,127
941,1,32046, Note_on_c,1,48,127
942,1,32256, Note_off_c,1,58,127
943,1,32256, Note_off_c,1,48,127
944,1,32256, Note_on_c,1,57,127
945,1,32256, Note_on_c,1,52,127
946,1,32256, Note_on_c,1,48,127
947,1,32444, Note_off_c,1,57,127
948,1,32444, Note_off_c,1,52,127
949,1,32444, Note_off_c,1,48,127
950,1,32444, Note_on_c,1,57,127
951,1,32444, Note_on_c,1,52,127
952,1,32444, Note_on_c,1,48,127
953,1,32640, Note_off_c,1,57,127
954,1,32640, Note_off_c,1,52,127
955,1,32640, Note_off_c,1,48,127
956,1,32640, Note_on_c,1,57,127
957,1,32640, Note_on_c,1,52,127
958,1,32640, Note_on_c,1,47,127
959,1,32835, Note_off_c,1,57,127
960,1,32835, Note_off_c,1,52,127
961,1,32835, Note_off_c,1,47,127
962,1,32835, Note_on_c,1,57,127
963,1,32835, Note_on_c,1,52,127
964,1,32835, Note_on_c,1,47,127
965,1,33024, Note_off_c,1,57,127
966,1,33024, Note_off_c,1,52,127
967,1,33024, Note_off_c,1,47,127
968,1,33024, Note_on_c,1,56,127
969,1,33024, Note_on_c,1,52,127
970,1,33024, Note_on_c,1,47,127
971,1,33209, Note_off_c,1,56,127
972,1,33209, Note_off_c,1,52,127
973,1,33209, Note_off_c,1,47,127
974,1,33209, Note_on_c,1,56,127
975,1,33209, Note_on_c,1,52,127
976,1,33209, Note_on_c,1,47,127
977,1,33408, Note_off_c,1,56,127
978,1,33408, Note_off_c,1,52,127
979,1,33408, Note_off_c,1,47,127
980,1,33408, Note_on_c,1,55,127
981,1,33408, Note_on_c,1,52,127
982,1,33408, Note_on_c,1,47,127
983,1,33591, Note_off_c,1,55,127
984,1,33591, Note_off_c,1,52,127
985,1,33591, Note_off_c,1,47,127
986,1,33591, Note_on_c,1,55,127
987,1,33591, Note_on_c,1,52,127
988,1,33591, Note_on_c,1,47,127
989,1,33792, Note_off_c,1,55,127
990,1,33792, Note_off_c,1,52,127
991,1,33792, Note_off_c,1,47,127
992,1,33792, Note_on_c,1,55,127
993,1,33792, Note_on_c,1,52,127
994,1,33792, Note_on_c,1,47,127
995,1,33942, Note_off_c,1,55,127
996,1,33942, Note_off_c,1,52,127
997,1,33942, Note_off_c,1,47,127
998,1,33942, Note_on_c,1,55,127
999,1,33942, Note_on_c,1,52,127
1000,1,33942, Note_on_c,1,47,127
1001,1,34176, Note_off_c,1,55,127
1002,1,34176, Note_off_c,1,52,127
1003,1,34176, Note_off_c,1,47,127
1004,1,34176, Note_on_c,1,55,127
1005,1,34176, Note_on_c,1,48,127
1006,1,34176, Note_on_c,1,46,127
1007,1,34944, Note_off_c,1,55,127
1008,1,34944, Note_off_c,1,48,127
1009,1,34944, Note_off_c,1,46,127
1010,1,35712, Note_on_c,1,64,127
1011,1,35712, Note_on_c,1,59,127
1012,1,35712, Note_on_c,1,54,127
1013,1,35712, Note_on_c,1,52,127
1014,1,35712, Note_on_c,1,47,127
1015,1,35712, Note_on_c,1,35,127
1016,1,36480, Note_off_c,1,64,127
1017,1,36480, Note_off_c,1,59,127
1018,1,36480, Note_off_c,1,54,127
1019,1,36480, Note_off_c,1,52,127
1020,1,36480, Note_off_c,1,47,127
1021,1,36480, Note_off_c,1,35,127
1022,1,36480, Note_on_c,1,63,127
1023,1,36480, Note_on_c,1,59,127
1024,1,36480, Note_on_c,1,54,127
1025,1,36480, Note_on_c,1,51,127
1026,1,36480, Note_on_c,1,47,127
1027,1,36480, Note_on_c,1,35,127
1028,1,37248, Note_off_c,1,63,127
1029,1,37248, Note_off_c,1,59,127
1030,1,37248, Note_off_c,1,54,127
1031,1,37248, Note_off_c,1,51,127
1032,1,37248, Note_off_c,1,47,127
1033,1,37248, Note_off_c,1,35,127
1034,1,37248, Note_on_c,1,64,127
1035,1,37248, Note_on_c,1,59,127
1036,1,37248, Note_on_c,1,55,127
1037,1,37248, Note_on_c,1,52,127
1038,1,37248, Note_on_c,1,40,127
1039,1,37248, Note_on_c,1,28,127
1040,1,38784, Note_off_c,1,64,127
1041,1,38784, Note_off_c,1,59,127
1042,1,38784, Note_off_c,1,55,127
1043,1,38784, Note_off_c,1,52,127
1044,1,38784, Note_off_c,1,40,127
1045,1,38784, Note_off_c,1,28,127
